<svg width="177" height="176" viewBox="0 0 177 176" fill="none" xmlns="http://www.w3.org/2000/svg">
<path d="M144.832 0.0390763H32.9844C28.7734 0.0351703 24.6016 0.863295 20.7109 2.47658C16.8203 4.08595 13.2812 6.44533 10.3047 9.42579C7.32422 12.4024 4.96094 15.9375 3.34766 19.8281C1.73828 23.7188 0.910156 27.8906 0.910156 32.1016V143.949C0.910156 148.16 1.73828 152.328 3.34766 156.219C4.96094 160.105 7.32422 163.641 10.3008 166.617C13.2773 169.594 16.8125 171.953 20.7031 173.563C24.5938 175.176 28.7617 176.004 32.9727 176H144.82C149.031 176.004 153.199 175.176 157.086 173.563C160.977 171.953 164.512 169.594 167.488 166.617C170.465 163.641 172.824 160.105 174.434 156.219C176.043 152.328 176.871 148.16 176.871 143.949V32.1016C176.871 27.8906 176.043 23.7227 174.434 19.836C172.828 15.9453 170.469 12.4102 167.492 9.43361C164.516 6.45704 160.984 4.09376 157.098 2.48439C153.211 0.871108 149.043 0.0390763 144.832 0.0390763Z" fill="#FBC707"/>
<path d="M170.996 143.965C170.988 150.898 168.227 157.547 163.32 162.453C158.418 167.355 151.77 170.117 144.832 170.129H32.9844C26.0469 170.125 19.3906 167.367 14.4805 162.461C9.57422 157.555 6.8125 150.902 6.80859 143.965V32.1133C6.80859 25.1758 9.56641 18.5195 14.4727 13.6133C19.3789 8.70313 26.0313 5.94531 32.9727 5.9375H144.82C151.758 5.94531 158.406 8.70312 163.312 13.6055C168.219 18.5117 170.977 25.1641 170.984 32.1016L170.996 143.965Z" fill="#FBC707"/>
<path d="M141.441 45.8984H103.613C102.719 45.9492 101.848 46.1992 101.059 46.625C100.273 47.0547 99.5898 47.6523 99.0586 48.375L56.8359 113.832C56.4102 114.59 56.1836 115.445 56.1836 116.316C56.1836 117.184 56.4102 118.039 56.8359 118.797L75.3555 148.09C75.4961 148.395 75.7188 148.652 76 148.832C76.2812 149.012 76.6094 149.105 76.9414 149.105C77.2773 149.105 77.6016 149.012 77.8828 148.832C78.1641 148.652 78.3867 148.395 78.5273 148.09L142.801 48.375C143.68 47.0156 143.066 45.8984 141.441 45.8984Z" fill="#231F20"/>
<path d="M62.6441 83.6992L85.4098 48.3711C86.2887 47.043 85.691 45.8984 84.0816 45.8984H38.5816C36.9684 45.8984 36.3434 47.0273 37.2496 48.3984L59.4996 83.6875C59.6402 83.9805 59.8629 84.2305 60.1402 84.4062C60.4176 84.582 60.7379 84.6758 61.066 84.6797C61.3941 84.6797 61.7184 84.5898 61.9957 84.4141C62.273 84.2422 62.4996 83.9922 62.6441 83.6992Z" fill="#231F20"/>
</svg>
